Coordinates
nRows=8
nColumns=24

# SIMM Motion File Header:
name Coordinates
datacolumns 24
datarows 8
otherdata 1
range 0.14333000000000001000 0.15033000000000002000

Units are S.I. units (second, meters, Newtons, ...)
Angles are in degrees.

endheader
time	pelvis_tx	pelvis_ty	pelvis_tz	pelvis_tilt	pelvis_list	pelvis_rotation	hip_flexion_r	hip_adduction_r	hip_rotation_r	knee_angle_r	ankle_angle_r	subtalar_angle_r	mtp_angle_r	hip_flexion_l	hip_adduction_l	hip_rotation_l	knee_angle_l	ankle_angle_l	subtalar_angle_l	mtp_angle_l	lumbar_extension	lumbar_bending	lumbar_rotation
      0.14333000000000001000	      0.63365422603319144000	      0.85235710393178965000	     -0.30613678951366946000	     -6.36005929133469740000	      6.59668200920709950000	      3.98478676683635990000	     -0.28396647077022308000	     -9.40841442753489150000	      0.89556521425132862000	    -46.14289392489742900000	    -23.49472967859189900000	      0.00000000000000000000	      0.00000000000000000000	     26.28600279457271700000	     10.87898202895725100000	     14.13144965700783700000	    -21.45574477574613300000	     -0.42364842132132735000	      0.00000000000000000000	      0.00000000000000000000	      0.12317148730249593000	     -7.79949545140703200000	      1.72488391983400380000
      0.14433000000000001000	      0.63476042028198931000	      0.85256438772925025000	     -0.30637238339236111000	     -6.35179364137246780000	      6.58896449920368980000	      4.00020460235229080000	     -0.11121591720692797000	     -9.40293408449526420000	      0.93620858798439455000	    -46.41819482014312800000	    -23.55369473445224300000	     -0.00000000000000000022	      0.00000000000000000027	     26.18630704863796400000	     10.87352159891368200000	     14.07207428103029500000	    -21.42850305964790200000	     -0.36870319027822257000	     -0.00000000000000000473	     -0.00000000000000000868	      0.10073954157269506000	     -7.78106810877626480000	      1.68763510984277710000
      0.14533000000000001000	      0.63586466827906107000	      0.85277231343502724000	     -0.30660717419102912000	     -6.34364565756507840000	      6.58105053581261320000	      4.01549861727854830000	      0.06176357862620265900	     -9.39716848567984900000	      0.97696680941802216000	    -46.69258083731653400000	    -23.61062399959104500000	     -0.00000000000000000026	      0.00000000000000000085	     26.08671221861810400000	     10.86774895563234700000	     14.01277155103006300000	    -21.40111254722631900000	     -0.31395842983482658000	     -0.00000000000000003304	      0.00000000000000002082	      0.07845845769497833400	     -7.76233355555190930000	      1.65047762534616900000
      0.14633000000000002000	      0.63696697946954928000	      0.85298088239190861000	     -0.30684115616312962000	     -6.33561032085330480000	      6.57292370169234360000	      4.03065935413697400000	      0.23496224630284102000	     -9.39109688199820170000	      1.01784395415427760000	    -46.96597686507443800000	    -23.66537490493377800000	      0.00000000000000000007	      0.00000000000000000287	     25.98719696048357600000	     10.86164468264673400000	     13.95356264391213100000	    -21.37355022619138400000	     -0.25931265332562631000	     -0.00000000000000010337	      0.00000000000000010028	      0.05632189614422738300	     -7.74326886848153070000	      1.61341641386334840000
      0.14733000000000002000	      0.63806734528774423000	      0.85319007898080845000	     -0.30707432015691205000	     -6.32769671385606270000	      6.56456715911831350000	      4.04567597515475440000	      0.40839196195592703000	     -9.38469882964314190000	      1.05884739665563950000	    -47.23830579879410900000	    -23.71778100292584300000	      0.00000000000000000092	      0.00000000000000000656	     25.88776295089044100000	     10.85518701169188700000	     13.89445439417052000000	    -21.34580477733064500000	     -0.20477187324718302000	     -0.00000000000000015348	      0.00000000000000020785	      0.03433745273636864400	     -7.72385143184834530000	      1.57645869513777190000
      0.14833000000000002000	      0.63916575754976657000	      0.85339988677021528000	     -0.30730665734927254000	     -6.31991391450069000000	      6.55596445784510000000	      4.06053791754671960000	      0.58206460317675479000	     -9.37795437776554940000	      1.09998379661525880000	    -47.50949138424444800000	    -23.76767904465164700000	      0.00000000000000000236	      0.00000000000000000684	     25.78841223421203200000	     10.84835468900954100000	     13.83545334119950500000	    -21.31786546219155200000	     -0.15034278412763336000	     -0.00000000000000017377	      0.00000000000000027667	      0.01251275369179199000	     -7.70405921560489570000	      1.53961170171300620000
      0.14933000000000002000	      0.64026220862711813000	      0.85361028874124301000	     -0.30753815929092765000	     -6.31227083402612980000	      6.54709955911560740000	      4.07523492882394050000	      0.75599179560776641000	     -9.37084409982414360000	      1.14125900817099170000	    -47.77945831334486100000	    -23.81490950499173200000	      0.00000000000000000505	      0.00000000000000000513	     25.68914698162147300000	     10.84112702124295800000	     13.77656586675588800000	    -21.28972202713279700000	     -0.09603179877488997300	     -0.00000000000000017494	      0.00000000000000031754	     -0.00914471096944117350	     -7.68387080072045150000	      1.50288264064965230000
      0.15033000000000002000	      0.64135669142794127000	      0.85382126733932406000	     -0.30776881789824667000	     -6.30477620410740250000	      6.53795686218052550000	      4.08975708600537140000	      0.93018488469598259000	     -9.36334913090009200000	      1.18267802789043520000	    -48.04813229016557600000	    -23.85931683147423500000	      0.00000000000000000867	      0.00000000000000000271	     25.58996948712215800000	     10.83348391354589100000	     13.71779818663409700000	    -21.26136473441340900000	     -0.04184502864792528200	     -0.00000000000000017324	      0.00000000000000032893	     -0.03062761037341580500	     -7.66326542208540130000	      1.46627867492559580000
